<svg xmlns="http://www.w3.org/2000/svg" viewBox="0 0 520 520" fill="none" role="img" aria-label="Lipid nanoparticle motif"><circle cx="260" cy="260" r="96" fill="none" stroke="#3b3fb0" stroke-width="1" opacity="0.35"/><circle cx="460.0" cy="260.0" r="4" fill="#3b3fb0"/><polyline points="460.0,263.0 429.0,265.0 398.0,260.0" fill="none" stroke="#17171a" stroke-width="1" stroke-linecap="round" stroke-linejoin="round"/><polyline points="460.0,257.0 429.0,255.0 398.0,260.0" fill="none" stroke="#17171a" stroke-width="1" stroke-linecap="round" stroke-linejoin="round"/><circle cx="455.0" cy="304.5" r="4" fill="#3b3fb0"/><polyline points="454.3,307.4 423.7,302.5 394.5,290.7" fill="none" stroke="#17171a" stroke-width="1" stroke-linecap="round" stroke-linejoin="round"/><polyline points="455.7,301.6 425.9,292.7 394.5,290.7" fill="none" stroke="#17171a" stroke-width="1" stroke-linecap="round" stroke-linejoin="round"/><circle cx="440.2" cy="346.8" r="4" fill="#3b3fb0"/><polyline points="438.9,349.5 410.1,337.8 384.3,319.9" fill="none" stroke="#17171a" stroke-width="1" stroke-linecap="round" stroke-linejoin="round"/><polyline points="441.5,344.1 414.4,328.8 384.3,319.9" fill="none" stroke="#17171a" stroke-width="1" stroke-linecap="round" stroke-linejoin="round"/><circle cx="416.4" cy="384.7" r="4" fill="#3b3fb0"/><polyline points="414.5,387.0 389.0,369.3 367.9,346.0" fill="none" stroke="#17171a" stroke-width="1" stroke-linecap="round" stroke-linejoin="round"/><polyline points="418.2,382.4 395.2,361.5 367.9,346.0" fill="none" stroke="#17171a" stroke-width="1" stroke-linecap="round" stroke-linejoin="round"/><circle cx="384.7" cy="416.4" r="4" fill="#3b3fb0"/><polyline points="382.4,418.2 361.5,395.2 346.0,367.9" fill="none" stroke="#17171a" stroke-width="1" stroke-linecap="round" stroke-linejoin="round"/><polyline points="387.0,414.5 369.3,389.0 346.0,367.9" fill="none" stroke="#17171a" stroke-width="1" stroke-linecap="round" stroke-linejoin="round"/><circle cx="346.8" cy="440.2" r="4" fill="#3b3fb0"/><polyline points="344.1,441.5 328.8,414.4 319.9,384.3" fill="none" stroke="#17171a" stroke-width="1" stroke-linecap="round" stroke-linejoin="round"/><polyline points="349.5,438.9 337.8,410.1 319.9,384.3" fill="none" stroke="#17171a" stroke-width="1" stroke-linecap="round" stroke-linejoin="round"/><circle cx="304.5" cy="455.0" r="4" fill="#3b3fb0"/><polyline points="301.6,455.7 292.7,425.9 290.7,394.5" fill="none" stroke="#17171a" stroke-width="1" stroke-linecap="round" stroke-linejoin="round"/><polyline points="307.4,454.3 302.5,423.7 290.7,394.5" fill="none" stroke="#17171a" stroke-width="1" stroke-linecap="round" stroke-linejoin="round"/><circle cx="260.0" cy="460.0" r="4" fill="#3b3fb0"/><polyline points="257.0,460.0 255.0,429.0 260.0,398.0" fill="none" stroke="#17171a" stroke-width="1" stroke-linecap="round" stroke-linejoin="round"/><polyline points="263.0,460.0 265.0,429.0 260.0,398.0" fill="none" stroke="#17171a" stroke-width="1" stroke-linecap="round" stroke-linejoin="round"/><circle cx="215.5" cy="455.0" r="4" fill="#3b3fb0"/><polyline points="212.6,454.3 217.5,423.7 229.3,394.5" fill="none" stroke="#17171a" stroke-width="1" stroke-linecap="round" stroke-linejoin="round"/><polyline points="218.4,455.7 227.3,425.9 229.3,394.5" fill="none" stroke="#17171a" stroke-width="1" stroke-linecap="round" stroke-linejoin="round"/><circle cx="173.2" cy="440.2" r="4" fill="#3b3fb0"/><polyline points="170.5,438.9 182.2,410.1 200.1,384.3" fill="none" stroke="#17171a" stroke-width="1" stroke-linecap="round" stroke-linejoin="round"/><polyline points="175.9,441.5 191.2,414.4 200.1,384.3" fill="none" stroke="#17171a" stroke-width="1" stroke-linecap="round" stroke-linejoin="round"/><circle cx="135.3" cy="416.4" r="4" fill="#3b3fb0"/><polyline points="133.0,414.5 150.7,389.0 174.0,367.9" fill="none" stroke="#17171a" stroke-width="1" stroke-linecap="round" stroke-linejoin="round"/><polyline points="137.6,418.2 158.5,395.2 174.0,367.9" fill="none" stroke="#17171a" stroke-width="1" stroke-linecap="round" stroke-linejoin="round"/><circle cx="103.6" cy="384.7" r="4" fill="#3b3fb0"/><polyline points="101.8,382.4 124.8,361.5 152.1,346.0" fill="none" stroke="#17171a" stroke-width="1" stroke-linecap="round" stroke-linejoin="round"/><polyline points="105.5,387.0 131.0,369.3 152.1,346.0" fill="none" stroke="#17171a" stroke-width="1" stroke-linecap="round" stroke-linejoin="round"/><circle cx="79.8" cy="346.8" r="4" fill="#3b3fb0"/><polyline points="78.5,344.1 105.6,328.8 135.7,319.9" fill="none" stroke="#17171a" stroke-width="1" stroke-linecap="round" stroke-linejoin="round"/><polyline points="81.1,349.5 109.9,337.8 135.7,319.9" fill="none" stroke="#17171a" stroke-width="1" stroke-linecap="round" stroke-linejoin="round"/><circle cx="65.0" cy="304.5" r="4" fill="#3b3fb0"/><polyline points="64.3,301.6 94.1,292.7 125.5,290.7" fill="none" stroke="#17171a" stroke-width="1" stroke-linecap="round" stroke-linejoin="round"/><polyline points="65.7,307.4 96.3,302.5 125.5,290.7" fill="none" stroke="#17171a" stroke-width="1" stroke-linecap="round" stroke-linejoin="round"/><circle cx="60.0" cy="260.0" r="4" fill="#3b3fb0"/><polyline points="60.0,257.0 91.0,255.0 122.0,260.0" fill="none" stroke="#17171a" stroke-width="1" stroke-linecap="round" stroke-linejoin="round"/><polyline points="60.0,263.0 91.0,265.0 122.0,260.0" fill="none" stroke="#17171a" stroke-width="1" stroke-linecap="round" stroke-linejoin="round"/><circle cx="65.0" cy="215.5" r="4" fill="#3b3fb0"/><polyline points="65.7,212.6 96.3,217.5 125.5,229.3" fill="none" stroke="#17171a" stroke-width="1" stroke-linecap="round" stroke-linejoin="round"/><polyline points="64.3,218.4 94.1,227.3 125.5,229.3" fill="none" stroke="#17171a" stroke-width="1" stroke-linecap="round" stroke-linejoin="round"/><circle cx="79.8" cy="173.2" r="4" fill="#3b3fb0"/><polyline points="81.1,170.5 109.9,182.2 135.7,200.1" fill="none" stroke="#17171a" stroke-width="1" stroke-linecap="round" stroke-linejoin="round"/><polyline points="78.5,175.9 105.6,191.2 135.7,200.1" fill="none" stroke="#17171a" stroke-width="1" stroke-linecap="round" stroke-linejoin="round"/><circle cx="103.6" cy="135.3" r="4" fill="#3b3fb0"/><polyline points="105.5,133.0 131.0,150.7 152.1,174.0" fill="none" stroke="#17171a" stroke-width="1" stroke-linecap="round" stroke-linejoin="round"/><polyline points="101.8,137.6 124.8,158.5 152.1,174.0" fill="none" stroke="#17171a" stroke-width="1" stroke-linecap="round" stroke-linejoin="round"/><circle cx="135.3" cy="103.6" r="4" fill="#3b3fb0"/><polyline points="137.6,101.8 158.5,124.8 174.0,152.1" fill="none" stroke="#17171a" stroke-width="1" stroke-linecap="round" stroke-linejoin="round"/><polyline points="133.0,105.5 150.7,131.0 174.0,152.1" fill="none" stroke="#17171a" stroke-width="1" stroke-linecap="round" stroke-linejoin="round"/><circle cx="173.2" cy="79.8" r="4" fill="#3b3fb0"/><polyline points="175.9,78.5 191.2,105.6 200.1,135.7" fill="none" stroke="#17171a" stroke-width="1" stroke-linecap="round" stroke-linejoin="round"/><polyline points="170.5,81.1 182.2,109.9 200.1,135.7" fill="none" stroke="#17171a" stroke-width="1" stroke-linecap="round" stroke-linejoin="round"/><circle cx="215.5" cy="65.0" r="4" fill="#3b3fb0"/><polyline points="218.4,64.3 227.3,94.1 229.3,125.5" fill="none" stroke="#17171a" stroke-width="1" stroke-linecap="round" stroke-linejoin="round"/><polyline points="212.6,65.7 217.5,96.3 229.3,125.5" fill="none" stroke="#17171a" stroke-width="1" stroke-linecap="round" stroke-linejoin="round"/><circle cx="260.0" cy="60.0" r="4" fill="#3b3fb0"/><polyline points="263.0,60.0 265.0,91.0 260.0,122.0" fill="none" stroke="#17171a" stroke-width="1" stroke-linecap="round" stroke-linejoin="round"/><polyline points="257.0,60.0 255.0,91.0 260.0,122.0" fill="none" stroke="#17171a" stroke-width="1" stroke-linecap="round" stroke-linejoin="round"/><circle cx="304.5" cy="65.0" r="4" fill="#3b3fb0"/><polyline points="307.4,65.7 302.5,96.3 290.7,125.5" fill="none" stroke="#17171a" stroke-width="1" stroke-linecap="round" stroke-linejoin="round"/><polyline points="301.6,64.3 292.7,94.1 290.7,125.5" fill="none" stroke="#17171a" stroke-width="1" stroke-linecap="round" stroke-linejoin="round"/><circle cx="346.8" cy="79.8" r="4" fill="#3b3fb0"/><polyline points="349.5,81.1 337.8,109.9 319.9,135.7" fill="none" stroke="#17171a" stroke-width="1" stroke-linecap="round" stroke-linejoin="round"/><polyline points="344.1,78.5 328.8,105.6 319.9,135.7" fill="none" stroke="#17171a" stroke-width="1" stroke-linecap="round" stroke-linejoin="round"/><circle cx="384.7" cy="103.6" r="4" fill="#3b3fb0"/><polyline points="387.0,105.5 369.3,131.0 346.0,152.1" fill="none" stroke="#17171a" stroke-width="1" stroke-linecap="round" stroke-linejoin="round"/><polyline points="382.4,101.8 361.5,124.8 346.0,152.1" fill="none" stroke="#17171a" stroke-width="1" stroke-linecap="round" stroke-linejoin="round"/><circle cx="416.4" cy="135.3" r="4" fill="#3b3fb0"/><polyline points="418.2,137.6 395.2,158.5 367.9,174.0" fill="none" stroke="#17171a" stroke-width="1" stroke-linecap="round" stroke-linejoin="round"/><polyline points="414.5,133.0 389.0,150.7 367.9,174.0" fill="none" stroke="#17171a" stroke-width="1" stroke-linecap="round" stroke-linejoin="round"/><circle cx="440.2" cy="173.2" r="4" fill="#3b3fb0"/><polyline points="441.5,175.9 414.4,191.2 384.3,200.1" fill="none" stroke="#17171a" stroke-width="1" stroke-linecap="round" stroke-linejoin="round"/><polyline points="438.9,170.5 410.1,182.2 384.3,200.1" fill="none" stroke="#17171a" stroke-width="1" stroke-linecap="round" stroke-linejoin="round"/><circle cx="455.0" cy="215.5" r="4" fill="#3b3fb0"/><polyline points="455.7,218.4 425.9,227.3 394.5,229.3" fill="none" stroke="#17171a" stroke-width="1" stroke-linecap="round" stroke-linejoin="round"/><polyline points="454.3,212.6 423.7,217.5 394.5,229.3" fill="none" stroke="#17171a" stroke-width="1" stroke-linecap="round" stroke-linejoin="round"/></svg>