<svg xmlns="http://www.w3.org/2000/svg" viewBox="0 0 240 180" fill="none"><rect width="240" height="180" fill="#f1f0ea"/><circle cx="120" cy="90" r="30" fill="none" stroke="#3b3fb0" stroke-width="1" opacity="0.4"/><circle cx="184.0" cy="90.0" r="3" fill="#3b3fb0"/><line x1="184.0" y1="90.0" x2="162.0" y2="90.0" stroke="#17171a" stroke-width="1" opacity="0.75" stroke-linecap="round"/><circle cx="181.4" cy="108.0" r="3" fill="#3b3fb0"/><line x1="181.4" y1="108.0" x2="160.3" y2="101.8" stroke="#17171a" stroke-width="1" opacity="0.75" stroke-linecap="round"/><circle cx="173.8" cy="124.6" r="3" fill="#3b3fb0"/><line x1="173.8" y1="124.6" x2="155.3" y2="112.7" stroke="#17171a" stroke-width="1" opacity="0.75" stroke-linecap="round"/><circle cx="161.9" cy="138.4" r="3" fill="#3b3fb0"/><line x1="161.9" y1="138.4" x2="147.5" y2="121.7" stroke="#17171a" stroke-width="1" opacity="0.75" stroke-linecap="round"/><circle cx="146.6" cy="148.2" r="3" fill="#3b3fb0"/><line x1="146.6" y1="148.2" x2="137.4" y2="128.2" stroke="#17171a" stroke-width="1" opacity="0.75" stroke-linecap="round"/><circle cx="129.1" cy="153.3" r="3" fill="#3b3fb0"/><line x1="129.1" y1="153.3" x2="126.0" y2="131.6" stroke="#17171a" stroke-width="1" opacity="0.75" stroke-linecap="round"/><circle cx="110.9" cy="153.3" r="3" fill="#3b3fb0"/><line x1="110.9" y1="153.3" x2="114.0" y2="131.6" stroke="#17171a" stroke-width="1" opacity="0.75" stroke-linecap="round"/><circle cx="93.4" cy="148.2" r="3" fill="#3b3fb0"/><line x1="93.4" y1="148.2" x2="102.6" y2="128.2" stroke="#17171a" stroke-width="1" opacity="0.75" stroke-linecap="round"/><circle cx="78.1" cy="138.4" r="3" fill="#3b3fb0"/><line x1="78.1" y1="138.4" x2="92.5" y2="121.7" stroke="#17171a" stroke-width="1" opacity="0.75" stroke-linecap="round"/><circle cx="66.2" cy="124.6" r="3" fill="#3b3fb0"/><line x1="66.2" y1="124.6" x2="84.7" y2="112.7" stroke="#17171a" stroke-width="1" opacity="0.75" stroke-linecap="round"/><circle cx="58.6" cy="108.0" r="3" fill="#3b3fb0"/><line x1="58.6" y1="108.0" x2="79.7" y2="101.8" stroke="#17171a" stroke-width="1" opacity="0.75" stroke-linecap="round"/><circle cx="56.0" cy="90.0" r="3" fill="#3b3fb0"/><line x1="56.0" y1="90.0" x2="78.0" y2="90.0" stroke="#17171a" stroke-width="1" opacity="0.75" stroke-linecap="round"/><circle cx="58.6" cy="72.0" r="3" fill="#3b3fb0"/><line x1="58.6" y1="72.0" x2="79.7" y2="78.2" stroke="#17171a" stroke-width="1" opacity="0.75" stroke-linecap="round"/><circle cx="66.2" cy="55.4" r="3" fill="#3b3fb0"/><line x1="66.2" y1="55.4" x2="84.7" y2="67.3" stroke="#17171a" stroke-width="1" opacity="0.75" stroke-linecap="round"/><circle cx="78.1" cy="41.6" r="3" fill="#3b3fb0"/><line x1="78.1" y1="41.6" x2="92.5" y2="58.3" stroke="#17171a" stroke-width="1" opacity="0.75" stroke-linecap="round"/><circle cx="93.4" cy="31.8" r="3" fill="#3b3fb0"/><line x1="93.4" y1="31.8" x2="102.6" y2="51.8" stroke="#17171a" stroke-width="1" opacity="0.75" stroke-linecap="round"/><circle cx="110.9" cy="26.7" r="3" fill="#3b3fb0"/><line x1="110.9" y1="26.7" x2="114.0" y2="48.4" stroke="#17171a" stroke-width="1" opacity="0.75" stroke-linecap="round"/><circle cx="129.1" cy="26.7" r="3" fill="#3b3fb0"/><line x1="129.1" y1="26.7" x2="126.0" y2="48.4" stroke="#17171a" stroke-width="1" opacity="0.75" stroke-linecap="round"/><circle cx="146.6" cy="31.8" r="3" fill="#3b3fb0"/><line x1="146.6" y1="31.8" x2="137.4" y2="51.8" stroke="#17171a" stroke-width="1" opacity="0.75" stroke-linecap="round"/><circle cx="161.9" cy="41.6" r="3" fill="#3b3fb0"/><line x1="161.9" y1="41.6" x2="147.5" y2="58.3" stroke="#17171a" stroke-width="1" opacity="0.75" stroke-linecap="round"/><circle cx="173.8" cy="55.4" r="3" fill="#3b3fb0"/><line x1="173.8" y1="55.4" x2="155.3" y2="67.3" stroke="#17171a" stroke-width="1" opacity="0.75" stroke-linecap="round"/><circle cx="181.4" cy="72.0" r="3" fill="#3b3fb0"/><line x1="181.4" y1="72.0" x2="160.3" y2="78.2" stroke="#17171a" stroke-width="1" opacity="0.75" stroke-linecap="round"/></svg>