<svg xmlns="http://www.w3.org/2000/svg" viewBox="0 0 240 180" fill="none"><rect width="240" height="180" fill="#f1f0ea"/><path d="M 0.0 134.7 L 4.0 117.6 L 8.0 109.5 L 12.0 103.8 L 16.0 99.3 L 20.0 95.8 L 24.0 93.0 L 28.0 90.7 L 32.0 88.8 L 36.0 87.3 L 40.0 86.2 L 44.0 85.3 L 48.0 84.7 L 52.0 84.3 L 56.0 84.1 L 60.0 84.1 L 64.0 84.3 L 68.0 84.6 L 72.0 85.0 L 76.0 85.6 L 80.0 86.2 L 84.0 87.0 L 88.0 87.8 L 92.0 88.7 L 96.0 89.6 L 100.0 90.5 L 104.0 91.4 L 108.0 92.3 L 112.0 93.1 L 116.0 93.9 L 120.0 94.6 L 124.0 95.1 L 128.0 95.5 L 132.0 95.7 L 136.0 95.7 L 140.0 95.5 L 144.0 95.0 L 148.0 94.2 L 152.0 93.2 L 156.0 91.9 L 160.0 90.3 L 164.0 88.5 L 168.0 86.4 L 172.0 84.0 L 176.0 81.4 L 180.0 78.6 L 184.0 75.5 L 188.0 72.3 L 192.0 68.9 L 196.0 65.3 L 200.0 61.5 L 204.0 57.6 L 208.0 53.6 L 212.0 49.4 L 216.0 45.0 L 220.0 40.6 L 224.0 36.0 L 228.0 31.4 L 232.0 26.6 L 236.0 21.7 L 240.0 16.7" stroke="#17171a" stroke-width="1.4" fill="none" opacity="0.7"/><path d="M 0.0 89.3 L 4.0 106.4 L 8.0 114.5 L 12.0 120.2 L 16.0 124.7 L 20.0 128.2 L 24.0 131.0 L 28.0 133.3 L 32.0 135.2 L 36.0 136.7 L 40.0 137.8 L 44.0 138.7 L 48.0 139.3 L 52.0 139.7 L 56.0 139.9 L 60.0 139.9 L 64.0 139.7 L 68.0 139.4 L 72.0 139.0 L 76.0 138.4 L 80.0 137.8 L 84.0 137.0 L 88.0 136.2 L 92.0 135.3 L 96.0 134.4 L 100.0 133.5 L 104.0 132.6 L 108.0 131.7 L 112.0 130.9 L 116.0 130.1 L 120.0 129.4 L 124.0 128.9 L 128.0 128.5 L 132.0 128.3 L 136.0 128.3 L 140.0 128.5 L 144.0 129.0 L 148.0 129.8 L 152.0 130.8 L 156.0 132.1 L 160.0 133.7 L 164.0 135.5 L 168.0 137.6 L 172.0 140.0 L 176.0 142.6 L 180.0 145.4 L 184.0 148.5 L 188.0 151.7 L 192.0 155.1 L 196.0 158.7 L 200.0 162.5 L 204.0 166.4 L 208.0 170.4 L 212.0 174.6 L 216.0 179.0 L 220.0 183.4 L 224.0 188.0 L 228.0 192.6 L 232.0 197.4 L 236.0 202.3 L 240.0 207.3" stroke="#17171a" stroke-width="1.4" fill="none" opacity="0.7"/><line x1="32.0" y1="88.8" x2="120.0" y2="129.4" stroke="#3b3fb0" stroke-width="1.2" opacity="0.9" stroke-linecap="round"/><circle cx="32.0" cy="88.8" r="4" fill="#3b3fb0" opacity="1.0"/><circle cx="120.0" cy="129.4" r="4" fill="#3b3fb0" opacity="1.0"/></svg>